<svg width="179" height="40" viewBox="0 0 179 40" fill="none" xmlns="http://www.w3.org/2000/svg">
<path d="M1.82523 32.7273H0L3.00808 2.18182H4.45366L13.6528 30.4145L22.8082 2.18182H24.2537L28.0648 32.7273H24.429L21.4064 8.29091L13.4776 32.7273H10.7178L2.70144 8.59636L1.82523 32.7273Z" fill="#463220"/>
<path d="M50.9727 32.7273C48.9868 32.7273 47.6289 32.3491 46.8988 31.5927C46.2271 30.9527 45.8912 30.4 45.8912 29.9345V29.0182C44.4603 31.6073 42.1678 32.9018 39.0138 32.9018C35.3341 32.9018 33.2461 31.2436 32.7496 27.9273C32.6912 27.5782 32.662 27.2291 32.662 26.88C32.662 26.5018 32.7204 26.0945 32.8372 25.6582C32.954 25.2218 33.2899 24.7418 33.8447 24.2182C34.9545 23.1709 37.393 22.5309 41.1603 22.2982C42.0948 22.2109 42.9563 22.1673 43.7448 22.1673C44.5333 22.1673 45.2488 22.1964 45.8912 22.2545V15.0109C45.8328 14.9818 45.8328 14.8509 45.8912 14.6182C45.9497 14.3564 45.8912 14.0364 45.716 13.6582C45.57 13.2509 45.3656 12.8582 45.1028 12.48C44.8399 12.1018 44.3727 11.7818 43.701 11.52C43.0293 11.2291 42.1532 11.0836 41.0726 11.0836C39.9921 11.0836 38.7218 11.2873 37.2616 11.6945C35.8306 12.0727 34.7793 12.4509 34.1076 12.8291L33.9324 12.5236C36.5315 11.3309 39.1744 10.7345 41.8611 10.7345C44.8691 10.7345 46.855 11.2727 47.8187 12.3491C48.578 13.1927 48.9576 14.08 48.9576 15.0109V29.6291C48.9576 30.4727 49.1183 31.1273 49.4395 31.5927C49.7899 32.0291 50.1404 32.2618 50.4908 32.2909L50.9727 32.3782H52.3307V32.7273H50.9727ZM39.7147 32.5527C41.2625 32.5527 42.6496 32.0291 43.8762 30.9818C45.132 29.9055 45.8036 28.8727 45.8912 27.8836V22.6036C45.1028 22.5455 44.2997 22.5164 43.4819 22.5164C42.6935 22.5164 41.905 22.56 41.1165 22.6473C38.897 22.9091 37.4514 23.4036 36.7797 24.1309C36.108 24.8582 35.7722 25.8618 35.7722 27.1418C35.7722 27.3745 35.7868 27.6364 35.816 27.9273C36.0788 31.0109 37.3784 32.5527 39.7147 32.5527Z" fill="#463220"/>
<path d="M55.3775 11.2582V10.9091H56.2974V6.54546H59.3638V10.9091H66.0661V11.2582H59.3638V27.1418C59.3638 29.0327 59.5683 30.4 59.9771 31.2436C60.4152 32.0873 61.3059 32.5091 62.6492 32.5091C64.0218 32.5091 65.409 32.2327 66.8108 31.68L66.9422 32.0291C65.482 32.5818 63.8028 32.8582 61.9045 32.8582C60.0355 32.8582 58.6337 32.48 57.6992 31.7236C56.7647 30.9382 56.2974 29.3964 56.2974 27.0982V11.2582H55.3775Z" fill="#463220"/>
<path d="M87.2991 32.7273C86.1017 32.7273 85.1818 32.4655 84.5393 31.9418C83.926 31.4182 83.6048 30.8945 83.5756 30.3709L83.5318 29.6291V15.9273C83.5318 13.6291 82.9185 12.16 81.692 11.52C81.1079 11.2291 80.3632 11.0836 79.4579 11.0836C77.6473 11.0836 76.0118 11.8255 74.5517 13.3091C73.1207 14.7636 72.4052 16.0727 72.4052 17.2364V32.7273H69.3388V0.0436384H72.4052V15.8836C72.8725 14.6327 73.7632 13.4691 75.0773 12.3927C76.3915 11.2873 77.8663 10.7345 79.5017 10.7345C82.3344 10.7345 84.2181 11.2291 85.1526 12.2182C86.1163 13.1782 86.5982 14.4291 86.5982 15.9709V29.6291C86.5982 30.4727 86.7588 31.1273 87.08 31.5927C87.4305 32.0291 87.7663 32.2618 88.0876 32.2909L88.6132 32.3782H91.2614V32.7273H87.2991Z" fill="#463220"/>
<path d="M94.5561 2.53091C97.9437 2.29818 100.937 2.18182 103.536 2.18182C110.749 2.18182 114.356 4.58182 114.356 9.38182C114.356 11.1855 113.83 12.7418 112.779 14.0509C111.728 15.3309 110.049 16.2036 107.742 16.6691C109.961 16.9309 111.713 17.6 112.998 18.6764C114.283 19.7527 114.926 21.6291 114.926 24.3055C114.926 29.92 111.319 32.7273 104.106 32.7273H94.5561V2.53091ZM98.1919 32.2909H104.106C106.705 32.2909 108.545 31.6218 109.625 30.2836C110.735 28.9164 111.29 26.8364 111.29 24.0436C111.29 21.2509 110.735 19.3891 109.625 18.4582C108.515 17.5273 106.865 17.0327 104.675 16.9745H98.1919V32.2909ZM103.536 2.61818C101.842 2.61818 100.061 2.72 98.1919 2.92364V16.5382H104.675C108.793 16.3636 110.852 14.0073 110.852 9.46909C110.852 7.25818 110.238 5.57091 109.012 4.40727C107.785 3.21455 105.96 2.61818 103.536 2.61818Z" fill="#463220"/>
<path d="M136.316 32.7273C134.331 32.7273 132.973 32.3491 132.242 31.5927C131.571 30.9527 131.235 30.4 131.235 29.9345V29.0182C129.804 31.6073 127.511 32.9018 124.357 32.9018C120.678 32.9018 118.59 31.2436 118.093 27.9273C118.035 27.5782 118.006 27.2291 118.006 26.88C118.006 26.5018 118.064 26.0945 118.181 25.6582C118.298 25.2218 118.634 24.7418 119.188 24.2182C120.298 23.1709 122.737 22.5309 126.504 22.2982C127.438 22.2109 128.3 22.1673 129.088 22.1673C129.877 22.1673 130.592 22.1964 131.235 22.2545V15.0109C131.177 14.9818 131.177 14.8509 131.235 14.6182C131.293 14.3564 131.235 14.0364 131.06 13.6582C130.914 13.2509 130.709 12.8582 130.446 12.48C130.184 12.1018 129.716 11.7818 129.045 11.52C128.373 11.2291 127.497 11.0836 126.416 11.0836C125.336 11.0836 124.065 11.2873 122.605 11.6945C121.174 12.0727 120.123 12.4509 119.451 12.8291L119.276 12.5236C121.875 11.3309 124.518 10.7345 127.205 10.7345C130.213 10.7345 132.199 11.2727 133.162 12.3491C133.922 13.1927 134.301 14.08 134.301 15.0109V29.6291C134.301 30.4727 134.462 31.1273 134.783 31.5927C135.134 32.0291 135.484 32.2618 135.835 32.2909L136.316 32.3782H137.674V32.7273H136.316ZM125.058 32.5527C126.606 32.5527 127.993 32.0291 129.22 30.9818C130.476 29.9055 131.147 28.8727 131.235 27.8836V22.6036C130.446 22.5455 129.643 22.5164 128.826 22.5164C128.037 22.5164 127.249 22.56 126.46 22.6473C124.241 22.9091 122.795 23.4036 122.123 24.1309C121.452 24.8582 121.116 25.8618 121.116 27.1418C121.116 27.3745 121.13 27.6364 121.16 27.9273C121.423 31.0109 122.722 32.5527 125.058 32.5527Z" fill="#463220"/>
<path d="M158.264 32.7273C157.067 32.7273 156.147 32.4655 155.504 31.9418C154.891 31.4182 154.57 30.8945 154.54 30.3709L154.497 29.6291V15.9273C154.497 13.6291 153.898 12.16 152.701 11.52C152.087 11.2291 151.328 11.0836 150.423 11.0836C148.554 11.0836 146.875 11.8255 145.385 13.3091C143.896 14.7636 143.151 16.0727 143.151 17.2364V32.7273H140.085V10.9091H143.151V15.8836C143.648 14.6327 144.567 13.4691 145.911 12.3927C147.254 11.2873 141.545 10.7345 143.151 10.7345C144.757 10.7345 153.241 10.8945 154.234 11.2145C155.256 11.5055 156.001 11.9273 156.468 12.48C157.198 13.3818 157.563 14.5455 157.563 15.9709V29.6291C157.563 30.4727 157.724 31.1273 158.045 31.5927C158.395 32.0291 158.746 32.2618 159.096 32.2909L159.578 32.3782H160.936V32.7273H158.264Z" fill="#463220"/>
<path d="M166.647 0V21.7309L176.284 10.9091H176.722L169.582 18.9382L179 32.7273H175.934L167.83 20.8582L166.647 22.2109V32.7273H163.58V0H166.647Z" fill="#463220"/>
<rect y="36.3636" width="91.2614" height="3.63636" fill="#66593C"/>
</svg>
